<svg xmlns="http://www.w3.org/2000/svg" width="678" height="440" viewBox="0 0 678 440" fill="none">
















































<path d="M113.04 421.464C113.04 421.464 101.422 400.746 90.7392 385.637L71.7852 392.59C71.7852 392.59 90.6371 415.337 95.68 433.104H97.7302C102.968 433.148 108.177 432.316 113.142 430.642C118.216 428.881 122.418 426.466 124.194 423.351C124.194 421.094 120.667 421.464 113.04 421.464Z" fill="#FFC619"/>
<path d="M96.0649 393.479C94.2975 390.789 92.5066 388.138 90.7392 385.614L71.7852 392.567C71.7852 392.567 77.0244 398.898 82.7193 407.511C81.3211 400.55 92.4359 395.091 96.0649 393.479Z" fill="black"/>
<path d="M72.1678 424.452C79.5987 408.384 79.0802 402.776 75.9382 387.58L55.5153 386.951C59.9926 404.907 60.6367 412.71 54.0307 427.583C53.3447 429.331 53.1123 431.226 53.3552 433.089H85.2857C86.1497 430.171 83.3691 428.873 72.1678 424.452Z" fill="#FFC619"/>
<path d="M77.3918 395.288C77.0226 392.968 76.5277 390.443 75.9386 387.572L55.5156 386.943C56.9108 392.084 57.9605 397.313 58.6576 402.595V402.642C58.6576 402.642 68.547 397.018 77.3918 395.288Z" fill="black"/>
<path d="M100.785 318.554C101.598 315.743 101.318 312.727 99.9998 310.115C99.5888 309.232 99.4442 308.248 99.5837 307.284C99.7232 306.32 100.141 305.417 100.785 304.688C101.731 303.468 102.426 302.073 102.828 300.582C104.304 295.21 102.042 289.736 97.7297 288.359C93.4173 286.983 88.7593 290.216 87.2747 295.588C86.4607 298.396 86.7414 301.41 88.0602 304.019C88.4775 304.898 88.6291 305.88 88.4965 306.844C88.364 307.808 87.953 308.713 87.314 309.446C86.3724 310.671 85.6786 312.069 85.2717 313.56C83.795 318.932 86.0572 324.398 90.3696 325.782C94.682 327.167 99.3086 323.918 100.785 318.554Z" fill="#FFD751"/>
<path d="M98.1385 313.001C98.5145 311.601 98.5736 310.133 98.3113 308.707C98.0353 307.555 98.1861 306.342 98.7355 305.293C99.1413 304.53 99.45 303.719 99.6545 302.879C100.44 299.796 99.843 296.909 98.3427 296.421C96.8424 295.934 95.0043 298.057 94.2267 301.141C93.7441 302.806 93.7687 304.578 94.2974 306.229C94.4304 306.552 94.482 306.902 94.4477 307.249C94.4135 307.596 94.2944 307.929 94.101 308.219C93.498 309.164 93.03 310.189 92.7107 311.263C91.7916 314.315 92.53 317.233 94.0225 317.713C95.5149 318.192 97.3687 316.085 98.1385 313.001Z" fill="black"/>
<path d="M100.739 390.317L54.0884 396.782C53.2811 396.895 52.4584 396.792 51.7029 396.486C50.9474 396.18 50.2856 395.68 49.7839 395.036L20.854 357.81C20.3593 357.162 20.0407 356.397 19.9292 355.589C19.8176 354.782 19.9171 353.959 20.2177 353.201L37.9543 309.509C38.2593 308.753 38.7585 308.09 39.4012 307.589C40.044 307.088 40.8076 306.765 41.6147 306.654L88.2733 300.181C89.0814 300.07 89.9046 300.173 90.6601 300.481C91.4157 300.789 92.0771 301.29 92.5779 301.935L121.5 339.153C122.001 339.798 122.324 340.563 122.437 341.372C122.55 342.181 122.449 343.005 122.144 343.763L104.407 387.454C104.102 388.213 103.602 388.877 102.958 389.38C102.314 389.883 101.548 390.206 100.739 390.317Z" fill="#29CC7A"/>
<path d="M51.7242 395.524C51.4521 395.527 51.1858 395.446 50.962 395.291C50.7382 395.136 50.5681 394.915 50.4753 394.659L45.4717 380.108L20.7834 356.669C20.5699 356.465 20.4312 356.195 20.3899 355.903C20.3486 355.61 20.4069 355.312 20.5556 355.057L38.0173 324.831C38.1791 324.552 38.4368 324.343 38.742 324.242C39.0472 324.14 39.3789 324.154 39.6747 324.28L87.9907 345.037C88.1604 345.11 88.313 345.217 88.4388 345.353C88.5646 345.488 88.6608 345.648 88.7212 345.823L102.546 387.698C102.616 387.913 102.63 388.142 102.586 388.364C102.542 388.586 102.442 388.793 102.295 388.965C102.149 389.137 101.96 389.269 101.748 389.347C101.537 389.425 101.308 389.448 101.085 389.413L48.5665 380.997L52.9653 393.778C53.024 393.939 53.0502 394.111 53.0425 394.283C53.0348 394.455 52.9932 394.623 52.9202 394.779C52.8472 394.935 52.7443 395.074 52.6172 395.19C52.4901 395.306 52.3415 395.395 52.1798 395.453C52.0332 395.503 51.879 395.527 51.7242 395.524ZM47.2155 378.142L99.3647 386.487L86.404 347.231L39.714 327.175L23.352 355.49L47.2155 378.142Z" fill="#15AD75"/>
<path d="M46.6011 380.666C46.2838 380.665 45.9777 380.549 45.7394 380.34C45.5011 380.13 45.3468 379.841 45.305 379.526L37.8506 325.649C37.8389 325.563 37.8389 325.475 37.8506 325.389L38.8639 308.872C38.9004 308.534 39.0658 308.223 39.3255 308.004C39.5853 307.785 39.9194 307.674 40.2584 307.695C40.5975 307.717 40.9152 307.868 41.1456 308.118C41.376 308.368 41.5012 308.697 41.4953 309.037L40.4742 325.444L47.9128 379.188C47.9578 379.534 47.8652 379.883 47.6551 380.161C47.4449 380.439 47.1341 380.624 46.7896 380.674L46.6011 380.666Z" fill="#15AD75"/>
<path d="M46.6086 380.666C46.4119 380.666 46.2177 380.621 46.0399 380.537C45.8621 380.453 45.705 380.331 45.5796 380.179C45.3602 379.906 45.2576 379.558 45.2945 379.21C45.3313 378.862 45.5044 378.543 45.776 378.323L86.6219 345.202C86.8072 345.046 87.0337 344.948 87.2739 344.919L120.728 340.278C121.061 340.256 121.391 340.36 121.65 340.571C121.909 340.782 122.078 341.084 122.124 341.415C122.17 341.746 122.089 342.083 121.897 342.356C121.705 342.63 121.416 342.82 121.09 342.889L88.0122 347.467L47.4334 380.368C47.2025 380.562 46.9102 380.668 46.6086 380.666Z" fill="#15AD75"/>
<path d="M87.4695 347.546H87.4145C87.2411 347.539 87.0709 347.497 86.9135 347.424C86.7561 347.351 86.6146 347.248 86.4971 347.12C86.3797 346.992 86.2885 346.842 86.2289 346.679C86.1693 346.516 86.1425 346.343 86.1498 346.169L87.9172 304.531L39.7033 326.671C39.3888 326.798 39.0379 326.798 38.7233 326.672C38.4086 326.546 38.1542 326.304 38.0129 325.996C37.8716 325.688 37.8541 325.337 37.964 325.016C38.074 324.695 38.303 324.429 38.6036 324.272L88.7813 301.235C88.9856 301.14 89.211 301.1 89.4355 301.117C89.66 301.135 89.8762 301.21 90.0632 301.336C90.2503 301.462 90.4019 301.634 90.5034 301.835C90.6049 302.036 90.653 302.26 90.6429 302.486L88.7813 346.279C88.7671 346.619 88.623 346.94 88.3787 347.176C88.1344 347.411 87.8088 347.544 87.4695 347.546Z" fill="#15AD75"/>
<path d="M79.0809 312.585C78.2833 309.094 76.3692 305.959 73.6295 303.657C72.743 302.918 72.0696 301.956 71.6788 300.869C71.288 299.782 71.194 298.611 71.4066 297.475C71.708 295.752 71.6545 293.986 71.2495 292.284C69.812 285.906 64.4549 280.738 59.2785 280.738C54.102 280.738 51.07 285.906 52.5075 292.284C53.3017 295.774 55.2166 298.907 57.9588 301.203C58.8421 301.938 59.5137 302.895 59.9044 303.977C60.2952 305.058 60.3909 306.224 60.1818 307.354C59.8834 309.08 59.9395 310.849 60.3467 312.553C61.7842 318.924 67.1413 324.091 72.3177 324.091C77.4942 324.091 80.5183 318.955 79.0809 312.585Z" fill="#FFD751"/>
<path d="M73.6693 309.666C73.3049 308.031 72.6332 306.48 71.6898 305.097C70.8567 303.997 70.3896 302.662 70.3545 301.282C70.3558 300.315 70.2397 299.351 70.0089 298.411C69.1605 294.777 66.9847 291.482 65.0916 291.081C63.1986 290.68 62.2953 293.495 63.2536 297.373C63.7534 299.568 64.7869 301.605 66.262 303.303C66.5663 303.597 66.8038 303.952 66.9583 304.346C67.1128 304.74 67.1808 305.162 67.1575 305.584C67.0406 306.836 67.1094 308.097 67.3617 309.328C68.0608 312.923 70.3702 315.762 72.0747 315.762C73.7793 315.762 74.4548 313.049 73.6693 309.666Z" fill="black"/>
<path d="M106.024 368.467C104.563 368.467 103.196 367.547 101.963 365.746C100.125 363.032 97.1558 356.166 95.679 351.699C95.5886 351.373 95.6264 351.025 95.7846 350.726C95.9429 350.427 96.2095 350.2 96.5297 350.092C96.8498 349.985 97.199 350.004 97.5055 350.146C97.8119 350.288 98.0522 350.543 98.1769 350.857C99.6222 355.151 102.497 361.798 104.178 364.228C104.862 365.235 105.553 365.801 106.079 365.801C106.605 365.801 107.155 365.258 107.721 364.33C108.938 362.332 110.077 359.123 111.224 356.025C111.79 354.451 112.379 352.839 112.984 351.305C113.129 351.004 113.384 350.77 113.696 350.65C114.007 350.529 114.353 350.532 114.663 350.656C114.973 350.781 115.224 351.019 115.366 351.322C115.507 351.625 115.529 351.97 115.426 352.289C114.837 353.751 114.256 355.356 113.698 356.898C112.481 360.272 111.342 363.457 109.967 365.683C108.593 367.909 107.147 368.397 106.15 368.42L106.024 368.467Z" fill="black"/>
<path d="M94.0077 353.295C93.7206 353.295 93.4414 353.201 93.2125 353.027C92.9836 352.854 92.8175 352.61 92.7393 352.334C92.6611 352.057 92.6752 351.762 92.7794 351.494C92.8835 351.227 93.0721 351 93.3165 350.849C94.7542 349.952 96.1318 348.961 97.4403 347.884C97.7107 347.666 98.0559 347.564 98.4011 347.599C98.7464 347.634 99.0639 347.804 99.2849 348.072C99.506 348.34 99.6127 348.684 99.5821 349.03C99.5515 349.376 99.3859 349.696 99.1213 349.921C97.7085 351.057 96.2291 352.108 94.6911 353.067C94.49 353.207 94.2527 353.287 94.0077 353.295Z" fill="black"/>
<path d="M72.1702 425.774H67.3001C66.9501 425.774 66.6145 425.635 66.367 425.387C66.1195 425.139 65.9805 424.803 65.9805 424.452C65.9805 424.102 66.1195 423.766 66.367 423.518C66.6145 423.27 66.9501 423.131 67.3001 423.131H72.1702C72.5202 423.131 72.8559 423.27 73.1033 423.518C73.3508 423.766 73.4898 424.102 73.4898 424.452C73.4898 424.803 73.3508 425.139 73.1033 425.387C72.8559 425.635 72.5202 425.774 72.1702 425.774Z" fill="black"/>
<path d="M108.648 423.965C108.331 423.965 108.024 423.851 107.785 423.643C107.545 423.435 107.388 423.148 107.342 422.834C107.296 422.52 107.365 422.2 107.535 421.932C107.706 421.665 107.967 421.468 108.271 421.377C108.349 421.377 110.172 420.819 112.725 420.189C113.063 420.106 113.421 420.161 113.719 420.341C114.017 420.522 114.232 420.814 114.315 421.153C114.399 421.492 114.344 421.85 114.164 422.149C113.983 422.448 113.692 422.662 113.353 422.746C110.863 423.359 109.041 423.902 109.025 423.91C108.902 423.943 108.775 423.962 108.648 423.965Z" fill="black"/>
<path d="M215.375 401.006C213.973 401.15 212.563 400.818 211.372 400.064C210.181 399.309 209.278 398.176 208.808 396.845C208.761 396.712 204.189 383.82 197.418 369.875C197.057 369.132 196.846 368.325 196.796 367.5C196.747 366.675 196.86 365.848 197.13 365.067C197.674 363.49 198.822 362.193 200.321 361.463C201.82 360.733 203.547 360.629 205.122 361.174C206.698 361.719 207.993 362.869 208.722 364.369C213.174 373.586 217.157 383.024 220.653 392.645C220.97 393.542 221.079 394.5 220.972 395.445C220.865 396.391 220.546 397.3 220.038 398.104C219.53 398.908 218.846 399.586 218.038 400.087C217.231 400.589 216.32 400.9 215.375 400.998V401.006Z" fill="#2331B5"/>
<path d="M200.354 339.712C215.798 339.712 228.318 327.176 228.318 311.711C228.318 296.247 215.798 283.711 200.354 283.711C184.91 283.711 172.391 296.247 172.391 311.711C172.391 327.176 184.91 339.712 200.354 339.712Z" fill="#8CD9FF"/>
<path d="M195.712 329.503C185.5 326.836 176.341 326.734 172.822 328.952C172.352 329.27 171.979 329.713 171.746 330.231C171.513 330.749 171.429 331.322 171.503 331.886L173.254 348.041L206.245 356.693L215.671 343.456C216.011 343.001 216.217 342.461 216.267 341.895C216.317 341.33 216.209 340.762 215.954 340.255C213.959 336.566 205.907 332.169 195.712 329.503Z" fill="#B5E4FF"/>
<path d="M215.564 355.019C216.725 350.568 206.548 344.054 192.835 340.47C179.122 336.885 167.064 337.588 165.904 342.039C164.743 346.49 174.92 353.004 188.633 356.588C202.346 360.173 214.404 359.47 215.564 355.019Z" fill="#7AC5FF"/>
<path d="M166.156 341.12C166.39 340.227 166.83 339.401 167.441 338.71C168.053 338.019 168.818 337.481 169.675 337.14C175.872 334.694 185.385 334.867 193.742 337.061C202.1 339.256 210.481 343.739 214.699 348.914C215.281 349.63 215.685 350.474 215.88 351.375C216.076 352.277 216.056 353.213 215.823 354.105L215.579 355.041L165.912 342.056L166.156 341.12Z" fill="#7AC5FF"/>
<path d="M209.119 354.735C209.853 351.924 202.062 347.453 191.72 344.749C181.377 342.046 172.398 342.134 171.665 344.946C170.932 347.757 178.722 352.228 189.065 354.932C199.408 357.635 208.386 357.547 209.119 354.735Z" fill="#B5E4FF"/>
<path d="M208.917 427.693C197.088 392.732 209.129 354.79 209.129 354.79L190.403 349.827L172.596 418.129L208.917 427.693Z" fill="#B5E4FF"/>
<path d="M136.266 408.667C163.656 383.962 171.676 344.958 171.676 344.958L190.402 349.827L172.595 418.129L136.266 408.667Z" fill="#B5E4FF"/>
<path d="M212.61 427.205C214.144 421.242 197.599 411.818 175.654 406.155C153.709 400.491 134.675 400.734 133.14 406.696C131.605 412.658 148.151 422.082 170.096 427.746C192.041 433.409 211.075 433.167 212.61 427.205Z" fill="#3F99F2"/>
<path d="M133.281 406.575C133.593 405.368 134.196 404.257 135.037 403.338C135.877 402.419 136.931 401.721 138.104 401.305C145.613 398.662 160.726 399.543 176.381 403.665C192.036 407.786 205.649 414.385 210.943 420.37C211.762 421.308 212.339 422.431 212.624 423.643C212.909 424.855 212.893 426.119 212.577 427.323L212.255 428.542L132.959 407.802L133.281 406.575Z" fill="#3F99F2"/>
<path d="M170.499 426.191C153.72 421.802 139.448 415.525 138.537 411.829C137.523 407.699 153.241 408.329 173.758 413.693C194.276 419.057 208.32 426.206 205.39 429.313C202.798 432.09 187.277 430.579 170.499 426.191Z" fill="#2331B5"/>
<path d="M138.536 411.829C138.952 413.52 142.18 415.761 147.176 418.121L150.318 409.367C142.565 408.714 137.994 409.54 138.536 411.829Z" fill="black"/>
<path d="M187.111 429.675C196.537 431.106 203.701 431.122 205.39 429.313C207.456 427.111 200.991 422.872 189.735 418.679L187.111 429.675Z" fill="black"/>
<path d="M171.448 360.413L171.126 359.698C168.769 363.953 167.033 368.09 170.505 369.026C174.37 370.064 182.091 366.312 193.395 359.902L193.214 358.14C179.279 363.198 169.971 364.629 171.448 360.413Z" fill="#5865F2"/>
<path d="M171.448 360.413L171.126 359.698C168.848 363.858 167.128 367.901 170.302 368.955C170.302 367.036 170.985 364.959 172.124 362.458C171.941 362.373 171.778 362.252 171.644 362.101C171.51 361.95 171.408 361.774 171.345 361.582C171.282 361.39 171.258 361.188 171.276 360.987C171.294 360.786 171.352 360.591 171.448 360.413Z" fill="black"/>
<path d="M171.418 361.782L171.999 363.284C172.16 363.716 172.423 364.102 172.765 364.41C173.107 364.718 173.518 364.939 173.963 365.054C176.626 365.699 181.692 364.771 193.396 359.902L193.216 358.14C181.103 362.561 172.494 364.189 171.418 361.782Z" fill="black"/>
<path d="M193.93 363.402C193.732 363.402 193.536 363.356 193.358 363.269C193.18 363.182 193.023 363.055 192.901 362.899C191.651 361.124 191.136 358.934 191.464 356.787C191.478 356.606 191.53 356.43 191.616 356.27C191.702 356.109 191.82 355.969 191.963 355.856C192.105 355.744 192.27 355.662 192.445 355.616C192.621 355.57 192.804 355.561 192.984 355.589C193.163 355.617 193.335 355.682 193.488 355.78C193.641 355.878 193.772 356.006 193.874 356.157C193.975 356.308 194.044 356.478 194.077 356.657C194.11 356.836 194.105 357.019 194.064 357.196C193.839 358.625 194.168 360.085 194.983 361.279C195.192 361.557 195.284 361.907 195.239 362.253C195.193 362.598 195.014 362.912 194.739 363.127C194.506 363.303 194.222 363.4 193.93 363.402Z" fill="black"/>
<path d="M170.348 361.53C170.065 361.529 169.79 361.436 169.564 361.266C169.337 361.097 169.171 360.858 169.09 360.587C169.009 360.316 169.018 360.025 169.114 359.759C169.21 359.493 169.39 359.264 169.625 359.108C170.188 358.745 170.776 358.424 171.385 358.148C171.7 358.032 172.048 358.04 172.357 358.172C172.666 358.303 172.914 358.548 173.049 358.856C173.184 359.164 173.197 359.512 173.085 359.829C172.973 360.146 172.744 360.409 172.445 360.563C171.968 360.789 171.508 361.052 171.071 361.349C170.851 361.475 170.601 361.538 170.348 361.53Z" fill="black"/>
<path d="M177.364 308.471C177.918 306.341 178.998 304.385 180.506 302.784C182.029 301.114 183.908 299.81 186.005 298.97C187.122 298.526 188.301 298.261 189.5 298.183C190.83 298.101 192.154 298.41 193.31 299.072C193.9 299.433 194.412 299.909 194.817 300.471C195.222 301.032 195.51 301.669 195.666 302.344C195.94 303.54 195.778 304.795 195.211 305.883C195.144 306.012 195.029 306.11 194.891 306.155C194.753 306.201 194.603 306.191 194.472 306.127C194.401 306.091 194.338 306.039 194.289 305.975C194.24 305.911 194.206 305.836 194.19 305.757C194.034 304.886 193.711 304.052 193.239 303.303C192.851 302.756 192.302 302.344 191.668 302.124C190.181 301.691 188.593 301.763 187.152 302.328C185.446 302.918 183.853 303.793 182.439 304.916C180.914 306.062 179.569 307.43 178.448 308.974C178.364 309.095 178.24 309.183 178.097 309.221C177.955 309.26 177.804 309.247 177.67 309.185C177.536 309.124 177.428 309.016 177.365 308.883C177.302 308.75 177.288 308.598 177.325 308.455L177.364 308.471Z" fill="black"/>
<path d="M188.117 385.291C196.162 389.381 203.802 394.224 210.936 399.755C211.589 400.292 212.345 400.692 213.156 400.93C213.967 401.168 214.818 401.239 215.658 401.14C216.498 401.041 217.309 400.773 218.043 400.352C218.777 399.932 219.418 399.367 219.929 398.693C220.44 398.018 220.81 397.247 221.016 396.426C221.222 395.605 221.261 394.751 221.13 393.915C220.998 393.078 220.7 392.277 220.252 391.559C219.804 390.841 219.216 390.22 218.524 389.735C206.615 380.69 197.771 375.9 193.521 373.934C188.761 371.731 186.766 371.574 180.718 372.172C178.306 372.424 177.701 373.344 176.287 377.843C174.873 382.342 176.994 383.639 181.723 383.144C183.702 382.939 185.407 383.93 188.117 385.291Z" fill="#2331B5"/>
<path d="M164.701 372.353C162.706 372.353 161.858 372.455 159.486 373.926C158.671 374.432 157.983 375.118 157.475 375.932C157.231 376.325 156.995 376.718 156.768 377.056C154.733 380.368 153.759 381.909 153.924 382.908C154.146 383.887 154.486 384.835 154.937 385.732C155.299 385.16 155.644 384.586 155.974 384.009C158.103 380.564 161.873 381.335 163.358 381.178C164.843 381.02 165.565 377.772 166.571 375.263C167.576 372.754 167.058 372.345 164.701 372.353Z" fill="#2331B5"/>
<path d="M191.989 373.257C189.978 372.518 188.847 370.017 188.211 368.475C187.574 366.934 186.459 367.39 185.344 367.846C184.228 368.302 183.938 369.372 185.493 372.872C187.048 376.372 191.989 373.257 191.989 373.257Z" fill="#2331B5"/>
<path d="M26.7045 265.11C25.2691 264.181 24.0471 262.957 23.1195 261.52C22.1919 260.083 21.5799 258.464 21.3239 256.772L20.4598 250.944C20.4391 250.805 20.3691 250.677 20.2624 250.585C20.1558 250.492 20.0196 250.441 19.8786 250.441C19.7375 250.441 19.6013 250.492 19.4947 250.585C19.388 250.677 19.318 250.805 19.2973 250.944L18.4254 256.772C18.1727 258.465 17.5629 260.083 16.6364 261.521C15.71 262.959 14.4882 264.182 13.0526 265.11L12.2671 265.597C12.1849 265.649 12.1174 265.721 12.0706 265.807C12.0239 265.892 11.9996 265.988 12 266.085V266.124C11.9996 266.222 12.0239 266.317 12.0706 266.403C12.1174 266.488 12.1849 266.56 12.2671 266.612L13.0526 267.1C14.4882 268.027 15.71 269.251 16.6364 270.688C17.5629 272.126 18.1727 273.745 18.4254 275.437L19.2973 281.265C19.318 281.405 19.388 281.532 19.4947 281.625C19.6013 281.717 19.7375 281.768 19.8786 281.768C20.0196 281.768 20.1558 281.717 20.2624 281.625C20.3691 281.532 20.4391 281.405 20.4598 281.265L21.3239 275.437C21.5799 273.745 22.1919 272.127 23.1195 270.689C24.0471 269.252 25.2691 268.028 26.7045 267.1L27.49 266.612C27.5732 266.561 27.6417 266.489 27.6885 266.404C27.7354 266.318 27.759 266.222 27.7571 266.124V266.085C27.759 265.987 27.7354 265.891 27.6885 265.805C27.6417 265.72 27.5732 265.648 27.49 265.597L26.7045 265.11Z" fill="#FFA8D2"/>
<path d="M102.048 200.449C101.315 199.974 100.69 199.348 100.216 198.614C99.7422 197.879 99.4296 197.051 99.2991 196.186L98.8593 193.205C98.8465 193.135 98.8097 193.072 98.7552 193.026C98.7007 192.98 98.632 192.954 98.5608 192.953C98.4896 192.954 98.4208 192.98 98.3663 193.026C98.3119 193.072 98.2751 193.135 98.2623 193.205L97.8224 196.186C97.6919 197.051 97.3794 197.879 96.9054 198.614C96.4314 199.348 95.8069 199.974 95.0732 200.449L94.6883 200.693C94.6457 200.722 94.6107 200.76 94.5861 200.806C94.5615 200.851 94.5481 200.901 94.5469 200.952C94.5473 201.003 94.5605 201.053 94.5852 201.097C94.6099 201.141 94.6454 201.178 94.6883 201.204L95.0732 201.456C95.8067 201.929 96.4312 202.553 96.9052 203.287C97.3792 204.021 97.6918 204.847 97.8224 205.711L98.2623 208.692C98.2734 208.764 98.3095 208.829 98.3641 208.876C98.4188 208.924 98.4884 208.95 98.5608 208.951C98.6331 208.95 98.7028 208.924 98.7574 208.876C98.8121 208.829 98.8481 208.764 98.8593 208.692L99.2991 205.711C99.4297 204.847 99.7424 204.021 100.216 203.287C100.69 202.553 101.315 201.929 102.048 201.456L102.441 201.204C102.483 201.177 102.517 201.14 102.541 201.096C102.564 201.052 102.576 201.002 102.575 200.952C102.575 200.902 102.563 200.851 102.54 200.806C102.517 200.761 102.483 200.722 102.441 200.693L102.048 200.449Z" fill="#5865F2"/>
<defs>
<linearGradient id="paint0_linear" x1="245.182" y1="128.601" x2="249.775" y2="126.859" gradientUnits="userSpaceOnUse">
<stop stop-color="#61C7C7"/>
<stop offset="1" stop-color="#54B9C7"/>
</linearGradient>
<linearGradient id="paint1_linear" x1="251.008" y1="241.786" x2="252.248" y2="256.312" gradientUnits="userSpaceOnUse">
<stop stop-color="#FFC285"/>
<stop offset="1" stop-color="#DB8D6B"/>
</linearGradient>
<linearGradient id="paint2_linear" x1="238.785" y1="256.656" x2="264.968" y2="243.831" gradientUnits="userSpaceOnUse">
<stop stop-color="#D67569"/>
<stop offset="1" stop-color="#E39E7F"/>
</linearGradient>
</defs>
</svg>